<svg
    width="16"
    height="19"
    viewBox="0 0 16 19"
    fill="#8A90AB"
    xmlns="http://www.w3.org/2000/svg"
>
    <path
    d="M15.1423 4.76272L10.5789 0.19933C10.4517 0.0720982 10.2799 0 10.0997 0H1.09166C0.716323 0 0.413086 0.303237 0.413086 0.678571V18.3214C0.413086 18.6968 0.716323 19 1.09166 19H14.6631C15.0384 19 15.3417 18.6968 15.3417 18.3214V5.24408C15.3417 5.06384 15.2696 4.88996 15.1423 4.76272ZM13.7767 5.5558H9.78585V1.56496L13.7767 5.5558ZM13.8149 17.4732H1.93987V1.52679H8.34389V6.10714C8.34389 6.34335 8.43772 6.56989 8.60475 6.73691C8.77177 6.90393 8.99831 6.99777 9.23452 6.99777H13.8149V17.4732ZM7.70773 11.7478H3.80594C3.71264 11.7478 3.6363 11.8241 3.6363 11.9174V12.9353C3.6363 13.0286 3.71264 13.1049 3.80594 13.1049H7.70773C7.80103 13.1049 7.87737 13.0286 7.87737 12.9353V11.9174C7.87737 11.8241 7.80103 11.7478 7.70773 11.7478ZM3.6363 9.03348V10.0513C3.6363 10.1446 3.71264 10.221 3.80594 10.221H11.9488C12.0421 10.221 12.1184 10.1446 12.1184 10.0513V9.03348C12.1184 8.94018 12.0421 8.86384 11.9488 8.86384H3.80594C3.71264 8.86384 3.6363 8.94018 3.6363 9.03348Z"
    />
</svg>
